# xmcd
#
# Track frame offsets:
#       150
#       16048
#       32727
#       48072
#       65276
#       83507
#       104073
#       121379
#       141042
#       160548
#       178017
#       192324
#       211638
#       233803
#       259530
#
# Disc length: 3749 seconds
#
# Revision: 2
# Processed by: cddbd v1.5.2PL0 Copyright (c) Steve Scherf et al.
# Submitted via: FreeDbEdit v0.1
#
DISCID=b50ea30f
DTITLE=Lenny Kravitz - Greatest Hits
DYEAR=1900
DGENRE=
TTITLE0=Are You Gonna Go My Way
TTITLE1=Fly Away
TTITLE2=Rock and Roll Is Dead
TTITLE3=Again
TTITLE4=It Ain't Over 'til It's Over
TTITLE5=Can't Get You Off My Mind
TTITLE6=Mr. Cab Driver
TTITLE7=American Woman
TTITLE8=Stand by My Woman
TTITLE9=Always on the Run
TTITLE10=Heaven Help
TTITLE11=I Belong to You
TTITLE12=Believe
TTITLE13=Let Love Rule
TTITLE14=Black Velveteen
EXTD=
EXTT0=
EXTT1=
EXTT2=
EXTT3=
EXTT4=
EXTT5=
EXTT6=
EXTT7=
EXTT8=
EXTT9=
EXTT10=
EXTT11=
EXTT12=
EXTT13=
EXTT14=
PLAYORDER=
